<mxfile host="app.diagrams.net" modified="2022-08-07T15:27:58.402Z" agent="5.0 (X11; Linux x86_64) AppleWebKit/537.36 (KHTML, like Gecko) Chrome/103.0.0.0 Safari/537.36" etag="mRbHZ4tUrsePNmyZ_02s" version="17.4.0" type="github">
  <diagram id="-BeOE3z5FSx-3IIOWKUC" name="Page-1">
    <mxGraphModel dx="1348" dy="773" grid="1" gridSize="10" guides="1" tooltips="1" connect="1" arrows="1" fold="1" page="1" pageScale="1" pageWidth="827" pageHeight="1169" math="0" shadow="0">
      <root>
        <mxCell id="0" />
        <mxCell id="1" parent="0" />
        <mxCell id="0cYHmkUbdcFgfiggZc-B-1" value="" style="ellipse;html=1;shape=startState;fillColor=#000000;strokeColor=#ff0000;" parent="1" vertex="1">
          <mxGeometry x="110" y="30" width="30" height="30" as="geometry" />
        </mxCell>
        <mxCell id="0cYHmkUbdcFgfiggZc-B-2" value="" style="edgeStyle=orthogonalEdgeStyle;html=1;verticalAlign=bottom;endArrow=open;endSize=8;strokeColor=#ff0000;rounded=0;" parent="1" source="0cYHmkUbdcFgfiggZc-B-1" edge="1">
          <mxGeometry relative="1" as="geometry">
            <mxPoint x="125" y="120" as="targetPoint" />
          </mxGeometry>
        </mxCell>
        <mxCell id="0cYHmkUbdcFgfiggZc-B-3" value="Dynamic DNS &lt;br&gt;service" style="rounded=1;whiteSpace=wrap;html=1;arcSize=40;fontColor=#000000;fillColor=#ffffc0;strokeColor=#ff0000;" parent="1" vertex="1">
          <mxGeometry x="65" y="120" width="120" height="40" as="geometry" />
        </mxCell>
        <mxCell id="0cYHmkUbdcFgfiggZc-B-4" value="" style="edgeStyle=orthogonalEdgeStyle;html=1;verticalAlign=bottom;endArrow=open;endSize=8;strokeColor=#ff0000;rounded=0;entryX=0.5;entryY=0.07;entryDx=0;entryDy=0;entryPerimeter=0;" parent="1" source="0cYHmkUbdcFgfiggZc-B-3" target="0cYHmkUbdcFgfiggZc-B-11" edge="1">
          <mxGeometry relative="1" as="geometry">
            <mxPoint x="125" y="220" as="targetPoint" />
          </mxGeometry>
        </mxCell>
        <mxCell id="0cYHmkUbdcFgfiggZc-B-5" value="mm" style="text;strokeColor=none;fillColor=none;html=1;fontSize=24;fontStyle=1;verticalAlign=middle;align=center;" parent="1" vertex="1">
          <mxGeometry x="520" y="10" width="70" height="40" as="geometry" />
        </mxCell>
        <UserObject label="Last revision:" placeholders="1" name="Variable" id="0cYHmkUbdcFgfiggZc-B-6">
          <mxCell style="text;html=1;strokeColor=none;fillColor=none;align=center;verticalAlign=middle;whiteSpace=wrap;overflow=hidden;" parent="1" vertex="1">
            <mxGeometry x="530" y="50" width="80" height="20" as="geometry" />
          </mxCell>
        </UserObject>
        <UserObject label="%date{ddd mmm dd yyyy HH:MM:ss}%" placeholders="1" id="0cYHmkUbdcFgfiggZc-B-7">
          <mxCell style="text;html=1;strokeColor=none;fillColor=none;align=center;verticalAlign=middle;whiteSpace=wrap;overflow=hidden;" parent="1" vertex="1">
            <mxGeometry x="600" y="50" width="160" height="20" as="geometry" />
          </mxCell>
        </UserObject>
        <UserObject label="Browser request" placeholders="1" name="Variable" id="0cYHmkUbdcFgfiggZc-B-8">
          <mxCell style="text;html=1;strokeColor=none;fillColor=none;align=center;verticalAlign=middle;whiteSpace=wrap;overflow=hidden;" parent="1" vertex="1">
            <mxGeometry x="150" y="35" width="80" height="35" as="geometry" />
          </mxCell>
        </UserObject>
        <UserObject label="1. A free DNS service points the request to my home computer" placeholders="1" name="Variable" id="0cYHmkUbdcFgfiggZc-B-10">
          <mxCell style="text;html=1;strokeColor=none;fillColor=none;align=center;verticalAlign=middle;whiteSpace=wrap;overflow=hidden;" parent="1" vertex="1">
            <mxGeometry x="210" y="122.5" width="200" height="35" as="geometry" />
          </mxCell>
        </UserObject>
        <mxCell id="0cYHmkUbdcFgfiggZc-B-11" value="" style="fontColor=#0066CC;verticalAlign=top;verticalLabelPosition=bottom;labelPosition=center;align=center;html=1;outlineConnect=0;fillColor=#CCCCCC;strokeColor=#6881B3;gradientColor=none;gradientDirection=north;strokeWidth=2;shape=mxgraph.networks.pc;" parent="1" vertex="1">
          <mxGeometry x="75" y="220" width="100" height="70" as="geometry" />
        </mxCell>
        <mxCell id="0cYHmkUbdcFgfiggZc-B-12" value="" style="edgeStyle=orthogonalEdgeStyle;html=1;verticalAlign=bottom;endArrow=open;endSize=8;strokeColor=#ff0000;rounded=0;" parent="1" source="0cYHmkUbdcFgfiggZc-B-11" edge="1">
          <mxGeometry relative="1" as="geometry">
            <mxPoint x="240" y="360" as="targetPoint" />
            <mxPoint x="124.5" y="290" as="sourcePoint" />
            <Array as="points">
              <mxPoint x="125" y="360" />
            </Array>
          </mxGeometry>
        </mxCell>
        <mxCell id="0cYHmkUbdcFgfiggZc-B-13" value="NGINX" style="rounded=1;whiteSpace=wrap;html=1;arcSize=40;fontColor=#000000;fillColor=#ffffc0;strokeColor=#ff0000;" parent="1" vertex="1">
          <mxGeometry x="240" y="340" width="120" height="40" as="geometry" />
        </mxCell>
        <UserObject label="2. The NGINX container serves the SSL certificate and acts as a reverse proxy, redirecting all traffic to the API gateway" placeholders="1" name="Variable" id="0cYHmkUbdcFgfiggZc-B-14">
          <mxCell style="text;html=1;strokeColor=none;fillColor=none;align=center;verticalAlign=middle;whiteSpace=wrap;overflow=hidden;" parent="1" vertex="1">
            <mxGeometry x="210" y="260" width="200" height="65" as="geometry" />
          </mxCell>
        </UserObject>
        <mxCell id="0cYHmkUbdcFgfiggZc-B-15" value="" style="edgeStyle=orthogonalEdgeStyle;html=1;verticalAlign=bottom;endArrow=open;endSize=8;strokeColor=#ff0000;rounded=0;entryX=0.5;entryY=0;entryDx=0;entryDy=0;" parent="1" source="0cYHmkUbdcFgfiggZc-B-13" target="0cYHmkUbdcFgfiggZc-B-16" edge="1">
          <mxGeometry relative="1" as="geometry">
            <mxPoint x="299.5" y="444.9" as="targetPoint" />
            <mxPoint x="299.5" y="380" as="sourcePoint" />
          </mxGeometry>
        </mxCell>
        <mxCell id="0cYHmkUbdcFgfiggZc-B-16" value="API gateway" style="rounded=1;whiteSpace=wrap;html=1;arcSize=40;fontColor=#000000;fillColor=#ffffc0;strokeColor=#ff0000;" parent="1" vertex="1">
          <mxGeometry x="240" y="450" width="120" height="40" as="geometry" />
        </mxCell>
        <UserObject label="3. This microservice acts as Authentication and authorization service and forwards the requests to the right microservice." placeholders="1" name="Variable" id="0cYHmkUbdcFgfiggZc-B-17">
          <mxCell style="text;html=1;strokeColor=none;fillColor=none;align=center;verticalAlign=middle;whiteSpace=wrap;overflow=hidden;" parent="1" vertex="1">
            <mxGeometry x="30" y="431.25" width="200" height="77.5" as="geometry" />
          </mxCell>
        </UserObject>
        <mxCell id="0cYHmkUbdcFgfiggZc-B-18" value="Scanner" style="rounded=1;whiteSpace=wrap;html=1;arcSize=40;fontColor=#000000;fillColor=#ffffc0;strokeColor=#ff0000;" parent="1" vertex="1">
          <mxGeometry x="500" y="340" width="120" height="40" as="geometry" />
        </mxCell>
        <mxCell id="0cYHmkUbdcFgfiggZc-B-20" value="" style="edgeStyle=orthogonalEdgeStyle;html=1;verticalAlign=bottom;endArrow=open;endSize=8;strokeColor=#ff0000;rounded=0;entryX=0;entryY=0.5;entryDx=0;entryDy=0;exitX=1;exitY=0.5;exitDx=0;exitDy=0;" parent="1" source="0cYHmkUbdcFgfiggZc-B-16" target="0cYHmkUbdcFgfiggZc-B-18" edge="1">
          <mxGeometry relative="1" as="geometry">
            <mxPoint x="480" y="570" as="targetPoint" />
            <mxPoint x="480" y="500" as="sourcePoint" />
            <Array as="points">
              <mxPoint x="440" y="470" />
              <mxPoint x="440" y="360" />
            </Array>
          </mxGeometry>
        </mxCell>
        <UserObject label="This microservice scans the specifiied local directory and stores the results in the database" placeholders="1" name="Variable" id="0cYHmkUbdcFgfiggZc-B-21">
          <mxCell style="text;html=1;strokeColor=none;fillColor=none;align=center;verticalAlign=middle;whiteSpace=wrap;overflow=hidden;" parent="1" vertex="1">
            <mxGeometry x="460" y="253.75" width="200" height="77.5" as="geometry" />
          </mxCell>
        </UserObject>
        <mxCell id="0cYHmkUbdcFgfiggZc-B-23" value="" style="edgeStyle=orthogonalEdgeStyle;html=1;verticalAlign=bottom;endArrow=open;endSize=8;strokeColor=#ff0000;rounded=0;exitX=1;exitY=0.5;exitDx=0;exitDy=0;" parent="1" source="0cYHmkUbdcFgfiggZc-B-18" edge="1">
          <mxGeometry relative="1" as="geometry">
            <mxPoint x="685.5999999999999" y="360" as="targetPoint" />
            <mxPoint x="630" y="359.5" as="sourcePoint" />
            <Array as="points" />
          </mxGeometry>
        </mxCell>
        <UserObject label="MySQL" placeholders="1" name="Variable" id="0cYHmkUbdcFgfiggZc-B-25">
          <mxCell style="text;html=1;strokeColor=none;fillColor=none;align=center;verticalAlign=middle;whiteSpace=wrap;overflow=hidden;" parent="1" vertex="1">
            <mxGeometry x="691.38" y="271.87" width="90" height="41.25" as="geometry" />
          </mxCell>
        </UserObject>
        <mxCell id="0cYHmkUbdcFgfiggZc-B-26" value="Streaming server" style="rounded=1;whiteSpace=wrap;html=1;arcSize=40;fontColor=#000000;fillColor=#ffffc0;strokeColor=#ff0000;" parent="1" vertex="1">
          <mxGeometry x="460" y="540" width="120" height="40" as="geometry" />
        </mxCell>
        <mxCell id="0cYHmkUbdcFgfiggZc-B-27" value="" style="edgeStyle=orthogonalEdgeStyle;html=1;verticalAlign=bottom;endArrow=open;endSize=8;strokeColor=#ff0000;rounded=0;entryX=0;entryY=0.5;entryDx=0;entryDy=0;exitX=0.5;exitY=1;exitDx=0;exitDy=0;" parent="1" source="0cYHmkUbdcFgfiggZc-B-16" target="0cYHmkUbdcFgfiggZc-B-26" edge="1">
          <mxGeometry relative="1" as="geometry">
            <mxPoint x="299.5" y="600" as="targetPoint" />
            <mxPoint x="299.5" y="530" as="sourcePoint" />
            <Array as="points">
              <mxPoint x="320" y="490" />
              <mxPoint x="320" y="560" />
            </Array>
          </mxGeometry>
        </mxCell>
        <mxCell id="0cYHmkUbdcFgfiggZc-B-28" value="" style="edgeStyle=orthogonalEdgeStyle;html=1;verticalAlign=bottom;endArrow=open;endSize=8;strokeColor=#ff0000;rounded=0;exitX=1;exitY=0.5;exitDx=0;exitDy=0;" parent="1" source="0cYHmkUbdcFgfiggZc-B-26" target="Q14JiuCbxcerGb3eglXE-1" edge="1">
          <mxGeometry relative="1" as="geometry">
            <mxPoint x="706" y="403.10000000000014" as="targetPoint" />
            <mxPoint x="636.2" y="610" as="sourcePoint" />
            <Array as="points">
              <mxPoint x="731" y="565" />
            </Array>
          </mxGeometry>
        </mxCell>
        <mxCell id="0cYHmkUbdcFgfiggZc-B-29" value="" style="fontColor=#0066CC;verticalAlign=top;verticalLabelPosition=bottom;labelPosition=center;align=center;html=1;outlineConnect=0;fillColor=#CCCCCC;strokeColor=#6881B3;gradientColor=none;gradientDirection=north;strokeWidth=2;shape=mxgraph.networks.storage;" parent="1" vertex="1">
          <mxGeometry x="580" y="670" width="68.8" height="70" as="geometry" />
        </mxCell>
        <mxCell id="0cYHmkUbdcFgfiggZc-B-30" value="" style="edgeStyle=orthogonalEdgeStyle;html=1;verticalAlign=bottom;endArrow=open;endSize=8;strokeColor=#ff0000;rounded=0;entryX=0.5;entryY=0;entryDx=0;entryDy=0;exitX=0.5;exitY=1;exitDx=0;exitDy=0;entryPerimeter=0;" parent="1" source="0cYHmkUbdcFgfiggZc-B-26" target="0cYHmkUbdcFgfiggZc-B-29" edge="1">
          <mxGeometry relative="1" as="geometry">
            <mxPoint x="440" y="765" as="targetPoint" />
            <mxPoint x="310" y="690" as="sourcePoint" />
          </mxGeometry>
        </mxCell>
        <UserObject label="File system" placeholders="1" name="Variable" id="0cYHmkUbdcFgfiggZc-B-31">
          <mxCell style="text;html=1;strokeColor=none;fillColor=none;align=center;verticalAlign=middle;whiteSpace=wrap;overflow=hidden;" parent="1" vertex="1">
            <mxGeometry x="661.2" y="680" width="90" height="41.25" as="geometry" />
          </mxCell>
        </UserObject>
        <UserObject label="Streams the music taking the path from MongoDB, also phisically manage the files updating their metadata or deleting them" placeholders="1" name="Variable" id="0cYHmkUbdcFgfiggZc-B-32">
          <mxCell style="text;html=1;strokeColor=none;fillColor=none;align=center;verticalAlign=middle;whiteSpace=wrap;overflow=hidden;" parent="1" vertex="1">
            <mxGeometry x="390" y="467.5" width="200" height="77.5" as="geometry" />
          </mxCell>
        </UserObject>
        <mxCell id="Q14JiuCbxcerGb3eglXE-1" value="" style="shape=image;imageAspect=0;aspect=fixed;verticalLabelPosition=bottom;verticalAlign=top;image=https://upload.wikimedia.org/wikipedia/commons/b/b2/Database-mysql.svg;" vertex="1" parent="1">
          <mxGeometry x="695.69" y="302.5" width="81.38" height="115" as="geometry" />
        </mxCell>
        <mxCell id="Q14JiuCbxcerGb3eglXE-2" value="" style="strokeColor=#dddddd;shadow=1;strokeWidth=1;rounded=1;absoluteArcSize=1;arcSize=2;" vertex="1" parent="1">
          <mxGeometry x="85" y="600" width="100" height="60" as="geometry" />
        </mxCell>
        <mxCell id="Q14JiuCbxcerGb3eglXE-3" value="Firebase" style="sketch=0;dashed=0;connectable=0;html=1;fillColor=#5184F3;strokeColor=none;shape=mxgraph.gcp2.firebase;part=1;labelPosition=right;verticalLabelPosition=middle;align=left;verticalAlign=middle;spacingLeft=5;fontColor=#999999;fontSize=12;" vertex="1" parent="Q14JiuCbxcerGb3eglXE-2">
          <mxGeometry width="32.4" height="45" relative="1" as="geometry">
            <mxPoint x="5" y="7" as="offset" />
          </mxGeometry>
        </mxCell>
        <mxCell id="Q14JiuCbxcerGb3eglXE-4" value="" style="edgeStyle=orthogonalEdgeStyle;html=1;verticalAlign=bottom;endArrow=open;endSize=8;strokeColor=#ff0000;rounded=0;entryX=0.5;entryY=0;entryDx=0;entryDy=0;exitX=0.25;exitY=1;exitDx=0;exitDy=0;" edge="1" parent="1" source="0cYHmkUbdcFgfiggZc-B-16" target="Q14JiuCbxcerGb3eglXE-2">
          <mxGeometry relative="1" as="geometry">
            <mxPoint x="270" y="622" as="targetPoint" />
            <mxPoint x="140" y="547" as="sourcePoint" />
            <Array as="points">
              <mxPoint x="270" y="560" />
              <mxPoint x="135" y="560" />
            </Array>
          </mxGeometry>
        </mxCell>
        <UserObject label="4. Firebase stores the users&#39; credentials and authenticate them" placeholders="1" name="Variable" id="Q14JiuCbxcerGb3eglXE-5">
          <mxCell style="text;html=1;strokeColor=none;fillColor=none;align=center;verticalAlign=middle;whiteSpace=wrap;overflow=hidden;" vertex="1" parent="1">
            <mxGeometry x="190" y="591.25" width="140" height="77.5" as="geometry" />
          </mxCell>
        </UserObject>
      </root>
    </mxGraphModel>
  </diagram>
</mxfile>
